{"title":"Legend of the Guardians - The Owls of Ga'Hoole 1080P BRRIP Dual","uid":7481824,"size":1807364348,"categoryP":"video","categoryS":"hd___movies","magnet":"?xt=urn:btih:3923d97ab292a217402ce431c6f9cdf984560226&amp;dn=Legend+of+the+Guardians+-+The+Owls+of+Ga%27Hoole+1080P+BRRIP+Dual+&amp;tr=udp%3A%2F%2Ftracker.openbittorrent.com%3A80&amp;tr=udp%3A%2F%2Fopen.demonii.com%3A1337&amp;tr=udp%3A%2F%2Ftracker.coppersurfer.tk%3A6969&amp;tr=udp%3A%2F%2Fexodus.desync.com%3A6969","seeders":2,"leechers":3,"uploader":"wall.e","files":16,"time":1343456794,"description":"Format                           : Matroska\nFile size                        : 1.64 GiB\nDuration                         : 1h 36mn\nOverall bit rate                 : 2421 Kbps\nMovie name                       : Legend of the Guardians - The Owls of Ga'Hoole 1080P BRRIP Dual Audio[5.1Hindi+English] ~ Ashish7(wall.e)\n\nVideo\nID                               : 1\nFormat                           : AVC\nFormat/Info                      : Advanced Video Codec\nBit rate                         : 1877 Kbps\nWidth                            : 1920 pixels\nHeight                           : 816 pixels\nDisplay aspect ratio             : 2.35:1\nFrame rate                       : 23.976 fps\nColor space                      : YUV\nChroma subsampling               : 4:2:0\nStream size                      : 1.27 GiB (78%)\nTitle                            : 1080P BRRIP ~ Ashish7(wall.e)\n\nAudio #1\nID                               : 2\nFormat                           : AC-3\nFormat/Info                      : Audio Coding 3\nBit rate                         : 448 Kbps\nChannel(s)                       : 6 channels\nChannel positions                : Front: L C R, Side: L R, LFE\nSampling rate                    : 48.0 KHz\nBit depth                        : 16 bits\nStream size                      : 310 MiB (19%)\nTitle                            : 5.1Hindi ~ Ashish7(wall.e)\n\nAudio #2\nID                               : 3\nFormat                           : MPEG Audio\nBit rate                         : 48.0 Kbps\nChannel(s)                       : 2 channels\nTitle                            : English ~ Ashish7(wall.e)","torrent":{"xt":"urn:btih:3923d97ab292a217402ce431c6f9cdf984560226","amp;dn":"Legend+of+the+Guardians+-+The+Owls+of+Ga%27Hoole+1080P+BRRIP+Dual+","amp;tr":["udp%3A%2F%2Ftracker.openbittorrent.com%3A80","udp%3A%2F%2Fopen.demonii.com%3A1337","udp%3A%2F%2Ftracker.coppersurfer.tk%3A6969","udp%3A%2F%2Fexodus.desync.com%3A6969"],"infoHash":"3923d97ab292a217402ce431c6f9cdf984560226","infoHashBuffer":{"type":"Buffer","data":[57,35,217,122,178,146,162,23,64,44,228,49,198,249,205,249,132,86,2,38]},"announce":[],"urlList":[]}}